<svg width="16" height="16" viewBox="0 0 16 16" fill="none" xmlns="http://www.w3.org/2000/svg">
<path d="M8 16C12.4183 16 16 12.4183 16 8C16 3.58172 12.4183 0 8 0C3.58172 0 0 3.58172 0 8C0 12.4183 3.58172 16 8 16Z" fill="#BAAC70"/>
<path d="M10.6046 9.74419C10.6046 9.74419 12.4183 16 7.99999 16C3.58172 16 0 12.4183 0 8C0 3.58172 3.58172 0 7.99999 0C0 4.72093 10.6046 9.74419 10.6046 9.74419Z" fill="#373435"/>
<path d="M5.99749 3.87593C5.99749 4.2068 6.05642 4.4904 6.17438 4.72674C6.30545 4.96307 6.48238 5.16791 6.70517 5.34121C6.92796 5.51451 7.1901 5.67995 7.49154 5.83754C7.80605 5.9793 8.15335 6.12902 8.5334 6.28656C9.00521 6.4914 9.47047 6.72772 9.92917 6.99558C10.401 7.24767 10.8204 7.57065 11.1873 7.96456C11.5674 8.3427 11.8754 8.81535 12.1113 9.38256C12.3472 9.94977 12.4651 10.6352 12.4651 11.4387C12.4651 12.2895 12.3341 13.0064 12.072 13.5893C11.8229 14.1723 11.4822 14.645 11.0497 15.0074C10.6172 15.354 10.1192 15.6061 9.55568 15.7637C8.9921 15.9212 8.40893 16 7.80605 16C6.94107 16 6.12852 15.874 5.36838 15.6219C4.62138 15.3698 3.97919 15.0625 3.44186 14.7001L4.03162 12.1477C4.52964 12.6047 5.08005 12.9827 5.68293 13.2821C6.29889 13.5815 7.00005 13.7312 7.78638 13.7312C8.62517 13.7312 9.23456 13.5579 9.61466 13.2112C9.9947 12.8488 10.1847 12.3683 10.1847 11.7696C10.1847 11.3127 10.093 10.9267 9.90949 10.6115C9.72605 10.2807 9.4967 10.0049 9.22145 9.78433C8.94624 9.548 8.65135 9.35893 8.33684 9.21712C8.0354 9.07535 7.76675 8.95716 7.53084 8.86265C7.11145 8.70507 6.68554 8.516 6.25303 8.29544C5.82056 8.07484 5.42084 7.79126 5.05386 7.4446C4.68689 7.08223 4.38547 6.63321 4.14957 6.09749C3.92678 5.56181 3.81538 4.89219 3.81538 4.08863C3.81538 3.33235 3.92022 2.69424 4.12991 2.1743C4.35271 1.65436 4.64759 1.23683 5.01456 0.921716C5.39461 0.590842 5.83363 0.354505 6.33168 0.212703C6.84279 0.0709009 7.39321 0 7.98298 0C8.70377 0 9.39838 0.0866568 10.0668 0.25997C10.7483 0.433284 11.3184 0.645986 11.7771 0.898079L11.2463 3.40325C11.0104 3.21418 10.7548 3.04874 10.4796 2.90694C10.2044 2.76514 9.91605 2.64697 9.61466 2.55244C9.32633 2.4579 9.03145 2.387 8.73 2.33973C8.44168 2.27671 8.16647 2.2452 7.90433 2.2452C7.31461 2.2452 6.84935 2.37913 6.50861 2.64697C6.16786 2.91482 5.99749 3.32447 5.99749 3.87593Z" fill="white"/>
</svg>
